master.ufo
<glyph name="Q" format="1">
	<unicode hex="0051"/>
	<advance width="600"/>
	<outline>
		<contour>
			<point x="300" y="-12" type="curve" smooth="yes"/>
			<point x="442" y="-12"/>
			<point x="544" y="124"/>
			<point x="544" y="332" type="curve" smooth="yes"/>
			<point x="544" y="540"/>
			<point x="442" y="672"/>
			<point x="300" y="672" type="curve" smooth="yes"/>
			<point x="158" y="672"/>
			<point x="56" y="540"/>
			<point x="56" y="332" type="curve" smooth="yes"/>
			<point x="56" y="124"/>
			<point x="158" y="-12"/>
		</contour>
		<contour>
			<point x="300" y="16" type="curve" smooth="yes"/>
			<point x="175" y="16"/>
			<point x="90" y="140"/>
			<point x="90" y="332" type="curve" smooth="yes"/>
			<point x="90" y="522"/>
			<point x="175" y="642"/>
			<point x="300" y="642" type="curve" smooth="yes"/>
			<point x="425" y="642"/>
			<point x="510" y="522"/>
			<point x="510" y="332" type="curve" smooth="yes"/>
			<point x="510" y="140"/>
			<point x="425" y="16"/>
		</contour>
		<contour>
			<point x="475" y="-150" type="curve" smooth="yes"/>
			<point x="494" y="-150"/>
			<point x="511" y="-147"/>
			<point x="532" y="-142" type="curve"/>
			<point x="525" y="-110" type="line"/>
			<point x="514" y="-114"/>
			<point x="499" y="-117"/>
			<point x="479" y="-117" type="curve" smooth="yes"/>
			<point x="389" y="-117"/>
			<point x="335" y="-74"/>
			<point x="315" y="-4" type="curve"/>
			<point x="279" y="-5" type="line"/>
			<point x="305" y="-86"/>
			<point x="366" y="-150"/>
		</contour>
		<contour>
			<point name="aboveUC" x="300" y="694" type="move"/>
		</contour>
	</outline>
</glyph>
<glyph name="T" format="1">
	<unicode hex="0054"/>
	<advance width="600"/>
	<outline>
		<contour>
			<point x="284" y="0" type="line"/>
			<point x="316" y="0" type="line"/>
			<point x="316" y="632" type="line"/>
			<point x="550" y="632" type="line"/>
			<point x="550" y="660" type="line"/>
			<point x="50" y="660" type="line"/>
			<point x="50" y="632" type="line"/>
			<point x="284" y="632" type="line"/>
		</contour>
		<contour>
			<point name="aboveUC" x="300" y="680" type="move"/>
		</contour>
		<contour>
			<point name="baseLC" x="300" y="0" type="move"/>
		</contour>
		<contour>
			<point name="belowLC" x="300" y="-20" type="move"/>
		</contour>
	</outline>
</glyph>
<glyph name="Z" format="1">
	<unicode hex="005A"/>
	<advance width="600"/>
	<outline>
		<contour>
			<point x="72" y="0" type="line"/>
			<point x="533" y="0" type="line"/>
			<point x="533" y="28" type="line"/>
			<point x="109" y="28" type="line"/>
			<point x="526" y="642" type="line"/>
			<point x="526" y="661" type="line"/>
			<point x="107" y="661" type="line"/>
			<point x="107" y="634" type="line"/>
			<point x="488" y="634" type="line"/>
			<point x="72" y="19" type="line"/>
		</contour>
		<contour>
			<point name="aboveUC" x="316" y="680" type="move"/>
		</contour>
		<contour>
			<point name="baseLC" x="320" y="0" type="move"/>
		</contour>
		<contour>
			<point name="belowLC" x="320" y="-20" type="move"/>
		</contour>
	</outline>
</glyph>
<glyph name="backslash" format="1">
	<unicode hex="005C"/>
	<advance width="600"/>
	<outline>
		<contour>
			<point x="446" y="-160" type="line"/>
			<point x="480" y="-160" type="line"/>
			<point x="154" y="710" type="line"/>
			<point x="120" y="710" type="line"/>
		</contour>
	</outline>
</glyph>
<glyph name="aringacute" format="1">
	<unicode hex="01FB"/>
	<advance width="600"/>
	<outline>
		<contour>
			<point x="284" y="722" type="line"/>
			<point x="408" y="784" type="line"/>
			<point x="392" y="814" type="line"/>
			<point x="266" y="734" type="line"/>
		</contour>
		<component base="aring"/>
	</outline>
</glyph>
<glyph name="dotlessjstroke" format="1">
	<unicode hex="025F"/>
	<advance width="600"/>
	<outline>
		<contour>
			<point x="138" y="238" type="line"/>
			<point x="568" y="238" type="line"/>
			<point x="568" y="266" type="line"/>
			<point x="346" y="266" type="line"/>
			<point x="138" y="262" type="line"/>
		</contour>
		<component base="dotlessj"/>
		<contour>
			<point name="aboveLC" x="350" y="500" type="move"/>
		</contour>
		<contour>
			<point name="belowLC" x="230" y="-230" type="move"/>
		</contour>
	</outline>
</glyph>
<glyph name="istroke" format="1">
	<unicode hex="0268"/>
	<advance width="600"/>
	<outline>
		<component base="istroke.d"/>
		<component base="dotaccentcmb" xOffset="50"/>
		<contour>
			<point name="aboveUC" x="350" y="720" type="move"/>
		</contour>
		<contour>
			<point name="baseLC" x="354" y="0" type="move"/>
		</contour>
		<contour>
			<point name="belowLC" x="350" y="-20" type="move"/>
		</contour>
	</outline>
</glyph>
<glyph name="lretroflex" format="1">
	<unicode hex="026D"/>
	<advance width="600"/>
	<outline>
		<contour>
			<point x="415" y="-180" type="curve" smooth="yes"/>
			<point x="461" y="-180"/>
			<point x="494" y="-165"/>
			<point x="532" y="-150" type="curve"/>
			<point x="520" y="-125" type="line"/>
			<point x="480" y="-144"/>
			<point x="449" y="-152"/>
			<point x="417" y="-152" type="curve" smooth="yes"/>
			<point x="345" y="-152"/>
			<point x="310" y="-114"/>
			<point x="310" y="-36" type="curve" smooth="yes"/>
			<point x="310" y="722" type="line"/>
			<point x="94" y="722" type="line"/>
			<point x="94" y="694" type="line"/>
			<point x="280" y="694" type="line"/>
			<point x="280" y="-30" type="line" smooth="yes"/>
			<point x="280" y="-137"/>
			<point x="329" y="-180"/>
		</contour>
		<contour>
			<point name="aboveUC" x="294" y="740" type="move"/>
		</contour>
		<contour>
			<point name="belowLC" x="400" y="-230" type="move"/>
		</contour>
	</outline>
</glyph>
<glyph name="hoicmb" format="1">
	<unicode hex="0309"/>
	<advance width="600"/>
	<outline>
		<contour>
			<point x="278" y="576" type="line"/>
			<point x="322" y="590"/>
			<point x="366" y="612"/>
			<point x="366" y="662" type="curve" smooth="yes"/>
			<point x="366" y="712"/>
			<point x="310" y="732"/>
			<point x="252" y="734" type="curve"/>
			<point x="250" y="708" type="line"/>
			<point x="304" y="706"/>
			<point x="336" y="690"/>
			<point x="336" y="658" type="curve" smooth="yes"/>
			<point x="336" y="628"/>
			<point x="308" y="612"/>
			<point x="270" y="600" type="curve"/>
		</contour>
		<contour>
			<point name="_aboveLC" x="300" y="500" type="move"/>
		</contour>
		<contour>
			<point name="aboveLC" x="300" y="500" type="move"/>
		</contour>
	</outline>
</glyph>
<glyph name="Iotatonos" format="1">
	<unicode hex="038A"/>
	<advance width="600"/>
	<outline>
		<contour>
			<point x="172" y="0" type="line"/>
			<point x="488" y="0" type="line"/>
			<point x="488" y="28" type="line"/>
			<point x="346" y="28" type="line"/>
			<point x="346" y="632" type="line"/>
			<point x="488" y="632" type="line"/>
			<point x="488" y="660" type="line"/>
			<point x="172" y="660" type="line"/>
			<point x="172" y="632" type="line"/>
			<point x="314" y="632" type="line"/>
			<point x="314" y="28" type="line"/>
			<point x="172" y="28" type="line"/>
		</contour>
		<component base="tonos.cap" xOffset="-220"/>
	</outline>
</glyph>
<glyph name="beta.a" format="1">
	<unicode hex="03D0"/>
	<advance width="600"/>
	<outline>
		<contour>
			<point x="330" y="-12" type="curve" smooth="yes"/>
			<point x="445" y="-12"/>
			<point x="532" y="72"/>
			<point x="532" y="182" type="curve" smooth="yes"/>
			<point x="532" y="296"/>
			<point x="464" y="374"/>
			<point x="334" y="384" type="curve"/>
			<point x="334" y="388" type="line"/>
			<point x="419" y="432"/>
			<point x="468" y="492"/>
			<point x="468" y="568" type="curve" smooth="yes"/>
			<point x="468" y="679"/>
			<point x="385" y="734"/>
			<point x="300" y="734" type="curve" smooth="yes"/>
			<point x="172" y="734"/>
			<point x="110" y="641"/>
			<point x="110" y="512" type="curve" smooth="yes"/>
			<point x="110" y="212" type="line" smooth="yes"/>
			<point x="110" y="42"/>
			<point x="237" y="-12"/>
		</contour>
		<contour>
			<point x="330" y="16" type="curve" smooth="yes"/>
			<point x="268" y="16"/>
			<point x="140" y="50"/>
			<point x="140" y="224" type="curve" smooth="yes"/>
			<point x="140" y="320"/>
			<point x="140" y="366"/>
			<point x="140" y="498" type="curve" smooth="yes"/>
			<point x="140" y="641"/>
			<point x="204" y="706"/>
			<point x="302" y="706" type="curve" smooth="yes"/>
			<point x="374" y="706"/>
			<point x="436" y="660"/>
			<point x="436" y="568" type="curve" smooth="yes"/>
			<point x="436" y="464"/>
			<point x="343" y="389"/>
			<point x="126" y="357" type="curve"/>
			<point x="134" y="329" type="line"/>
			<point x="240" y="356"/>
			<point x="296" y="358"/>
			<point x="316" y="358" type="curve" smooth="yes"/>
			<point x="442" y="358"/>
			<point x="500" y="283"/>
			<point x="500" y="182" type="curve" smooth="yes"/>
			<point x="500" y="90"/>
			<point x="431" y="16"/>
		</contour>
	</outline>
</glyph>
<glyph name="kabashkir" format="1">
	<unicode hex="04A1"/>
	<advance width="600"/>
	<outline>
		<contour>
			<point x="226" y="0" type="line"/>
			<point x="256" y="0" type="line"/>
			<point x="256" y="236" type="line"/>
			<point x="386" y="236" type="line"/>
			<point x="538" y="0" type="line"/>
			<point x="572" y="0" type="line"/>
			<point x="401" y="264" type="line"/>
			<point x="256" y="264" type="line"/>
			<point x="256" y="478" type="line"/>
			<point x="226" y="478" type="line"/>
		</contour>
		<contour>
			<point x="36" y="450" type="line"/>
			<point x="226" y="450" type="line"/>
			<point x="256" y="478" type="line"/>
			<point x="36" y="478" type="line"/>
		</contour>
		<contour>
			<point x="404" y="240" type="line"/>
			<point x="462" y="378" type="line" smooth="yes"/>
			<point x="491" y="447"/>
			<point x="512" y="458"/>
			<point x="538" y="458" type="curve" smooth="yes"/>
			<point x="545" y="458"/>
			<point x="546" y="458"/>
			<point x="552" y="456" type="curve"/>
			<point x="560" y="486" type="line"/>
			<point x="556" y="488"/>
			<point x="547" y="490"/>
			<point x="540" y="490" type="curve" smooth="yes"/>
			<point x="502" y="490"/>
			<point x="472" y="472"/>
			<point x="436" y="386" type="curve" smooth="yes"/>
			<point x="376" y="243" type="line"/>
		</contour>
	</outline>
</glyph>
<glyph name="Aie" format="1">
	<unicode hex="04D4"/>
	<advance width="600"/>
	<outline>
		<component base="AE"/>
		<contour>
			<point name="aboveUC" x="444" y="680" type="move"/>
		</contour>
	</outline>
</glyph>
<glyph name="tenge" format="1">
	<unicode hex="20B8"/>
	<advance width="600"/>
	<outline>
		<contour>
			<point x="284" y="0" type="line"/>
			<point x="316" y="0" type="line"/>
			<point x="316" y="504" type="line"/>
			<point x="530" y="504" type="line"/>
			<point x="530" y="532" type="line"/>
			<point x="136" y="532" type="line"/>
			<point x="70" y="528" type="line"/>
			<point x="70" y="504" type="line"/>
			<point x="284" y="504" type="line"/>
		</contour>
		<contour>
			<point x="70" y="612" type="line"/>
			<point x="530" y="612" type="line"/>
			<point x="530" y="640" type="line"/>
			<point x="70" y="640" type="line"/>
		</contour>
	</outline>
</glyph>
<glyph name="liraturkish" format="1">
	<unicode hex="20BA"/>
	<advance width="600"/>
	<outline>
		<contour>
			<point x="192" y="-12" type="line"/>
			<point x="357" y="-14"/>
			<point x="525" y="54"/>
			<point x="525" y="212" type="curve" smooth="yes"/>
			<point x="525" y="234"/>
			<point x="522" y="248"/>
			<point x="516" y="274" type="curve"/>
			<point x="489" y="264" type="line"/>
			<point x="496" y="242"/>
			<point x="496" y="226"/>
			<point x="496" y="210" type="curve" smooth="yes"/>
			<point x="496" y="78"/>
			<point x="337" y="18"/>
			<point x="224" y="18" type="curve"/>
			<point x="224" y="310" type="line"/>
			<point x="431" y="406" type="line"/>
			<point x="419" y="432" type="line"/>
			<point x="224" y="340" type="line"/>
			<point x="224" y="426" type="line"/>
			<point x="431" y="522" type="line"/>
			<point x="419" y="548" type="line"/>
			<point x="224" y="456" type="line"/>
			<point x="224" y="640" type="line"/>
			<point x="192" y="640" type="line"/>
			<point x="192" y="440" type="line"/>
			<point x="66" y="384" type="line"/>
			<point x="78" y="358" type="line"/>
			<point x="192" y="410" type="line"/>
			<point x="192" y="324" type="line"/>
			<point x="66" y="268" type="line"/>
			<point x="78" y="242" type="line"/>
			<point x="192" y="294" type="line"/>
		</contour>
	</outline>
</glyph>
<glyph name="careof" format="1">
	<unicode hex="2105"/>
	<advance width="600"/>
	<outline>
		<contour>
			<point x="162" y="328" type="curve" smooth="yes"/>
			<point x="204" y="328"/>
			<point x="238" y="346"/>
			<point x="265" y="370" type="curve"/>
			<point x="248" y="392" type="line"/>
			<point x="228" y="373"/>
			<point x="200" y="356"/>
			<point x="162" y="356" type="curve" smooth="yes"/>
			<point x="101" y="356"/>
			<point x="60" y="410"/>
			<point x="60" y="490" type="curve" smooth="yes"/>
			<point x="60" y="568"/>
			<point x="106" y="625"/>
			<point x="164" y="625" type="curve" smooth="yes"/>
			<point x="196" y="625"/>
			<point x="218" y="610"/>
			<point x="238" y="590" type="curve"/>
			<point x="256" y="612" type="line"/>
			<point x="234" y="632"/>
			<point x="208" y="652"/>
			<point x="164" y="652" type="curve" smooth="yes"/>
			<point x="94" y="652"/>
			<point x="28" y="592"/>
			<point x="28" y="490" type="curve" smooth="yes"/>
			<point x="28" y="388"/>
			<point x="86" y="328"/>
		</contour>
		<component base="fraction" xOffset="1"/>
		<component base="zero.dnom" xOffset="140"/>
	</outline>
</glyph>
<glyph name="lightquaddashhorzbxd" format="1">
	<unicode hex="2508"/>
	<advance width="600"/>
	<outline>
		<contour>
			<point x="469" y="285" type="line"/>
			<point x="581" y="285" type="line"/>
			<point x="581" y="315" type="line"/>
			<point x="469" y="315" type="line"/>
		</contour>
		<contour>
			<point x="319" y="285" type="line"/>
			<point x="431" y="285" type="line"/>
			<point x="431" y="315" type="line"/>
			<point x="319" y="315" type="line"/>
		</contour>
		<contour>
			<point x="169" y="285" type="line"/>
			<point x="281" y="285" type="line"/>
			<point x="281" y="315" type="line"/>
			<point x="169" y="315" type="line"/>
		</contour>
		<contour>
			<point x="19" y="285" type="line"/>
			<point x="131" y="285" type="line"/>
			<point x="131" y="315" type="line"/>
			<point x="19" y="315" type="line"/>
		</contour>
	</outline>
</glyph>
<glyph name="brackhalfbotright" format="1">
	<unicode hex="2E25"/>
	<advance width="600"/>
	<outline>
		<contour>
			<point x="94" y="-152" type="line"/>
			<point x="354" y="-152" type="line"/>
			<point x="354" y="278" type="line"/>
			<point x="326" y="278" type="line"/>
			<point x="326" y="-130" type="line"/>
			<point x="94" y="-130" type="line"/>
		</contour>
	</outline>
</glyph>
<glyph name="be.srb" format="1">
	<advance width="600"/>
	<outline>
		<contour>
			<point x="297" y="-12" type="curve" smooth="yes"/>
			<point x="423" y="-12"/>
			<point x="501" y="84"/>
			<point x="501" y="220" type="curve" smooth="yes"/>
			<point x="501" y="344"/>
			<point x="428" y="400"/>
			<point x="339" y="466" type="curve" smooth="yes"/>
			<point x="267" y="520"/>
			<point x="189" y="546"/>
			<point x="189" y="590" type="curve" smooth="yes"/>
			<point x="189" y="657"/>
			<point x="266" y="649"/>
			<point x="411" y="672" type="curve" smooth="yes"/>
			<point x="449" y="678"/>
			<point x="477" y="684"/>
			<point x="503" y="698" type="curve"/>
			<point x="495" y="730" type="line"/>
			<point x="467" y="716"/>
			<point x="455" y="712"/>
			<point x="405" y="704" type="curve" smooth="yes"/>
			<point x="250" y="679"/>
			<point x="157" y="683"/>
			<point x="157" y="588" type="curve" smooth="yes"/>
			<point x="157" y="534"/>
			<point x="245" y="497"/>
			<point x="323" y="440" type="curve" smooth="yes"/>
			<point x="405" y="380"/>
			<point x="469" y="326"/>
			<point x="469" y="218" type="curve" smooth="yes"/>
			<point x="469" y="108"/>
			<point x="413" y="16"/>
			<point x="297" y="16" type="curve" smooth="yes"/>
			<point x="211" y="16"/>
			<point x="131" y="92"/>
			<point x="131" y="198" type="curve" smooth="yes"/>
			<point x="131" y="310"/>
			<point x="207" y="394"/>
			<point x="343" y="426" type="curve"/>
			<point x="323" y="448" type="line"/>
			<point x="183" y="406"/>
			<point x="99" y="330"/>
			<point x="99" y="198" type="curve" smooth="yes"/>
			<point x="99" y="68"/>
			<point x="199" y="-12"/>
		</contour>
	</outline>
</glyph>
<glyph name="circumflexacutecmb.cap" format="1">
	<advance width="600"/>
	<outline>
		<contour>
			<point x="204" y="710" type="line"/>
			<point x="298" y="778" type="line"/>
			<point x="302" y="778" type="line"/>
			<point x="396" y="710" type="line"/>
			<point x="410" y="726" type="line"/>
			<point x="314" y="808" type="line"/>
			<point x="286" y="808" type="line"/>
			<point x="190" y="726" type="line"/>
		</contour>
		<contour>
			<point x="396" y="766" type="line"/>
			<point x="496" y="860" type="line"/>
			<point x="472" y="882" type="line"/>
			<point x="378" y="784" type="line"/>
		</contour>
		<contour>
			<point name="_aboveUC" x="300" y="680" type="move"/>
		</contour>
	</outline>
</glyph>
<glyph name="dblgravecmb.cap" format="1">
	<advance width="600"/>
	<outline>
		<contour>
			<point x="238" y="710" type="line"/>
			<point x="258" y="720" type="line"/>
			<point x="172" y="866" type="line"/>
			<point x="146" y="850" type="line"/>
		</contour>
		<contour>
			<point x="376" y="710" type="line"/>
			<point x="396" y="720" type="line"/>
			<point x="310" y="866" type="line"/>
			<point x="284" y="850" type="line"/>
		</contour>
		<contour>
			<point name="_aboveUC" x="300" y="680" type="move"/>
		</contour>
	</outline>
</glyph>
<glyph name="hungarumlautcmb.cap" format="1">
	<advance width="600"/>
	<outline>
		<contour>
			<point x="224" y="710" type="line"/>
			<point x="316" y="850" type="line"/>
			<point x="290" y="866" type="line"/>
			<point x="204" y="720" type="line"/>
		</contour>
		<contour>
			<point x="362" y="710" type="line"/>
			<point x="454" y="850" type="line"/>
			<point x="428" y="866" type="line"/>
			<point x="342" y="720" type="line"/>
		</contour>
		<contour>
			<point name="_aboveUC" x="300" y="680" type="move"/>
		</contour>
	</outline>
</glyph>
<glyph name="ijacute" format="1">
	<advance width="600"/>
	<outline>
		<contour>
			<point x="140" y="0" type="line"/>
			<point x="170" y="0" type="line"/>
			<point x="170" y="478" type="line"/>
			<point x="140" y="478" type="line"/>
		</contour>
		<contour>
			<point x="382" y="-234" type="curve" smooth="yes"/>
			<point x="448" y="-234"/>
			<point x="480" y="-194"/>
			<point x="480" y="-102" type="curve" smooth="yes"/>
			<point x="480" y="478" type="line"/>
			<point x="450" y="478" type="line"/>
			<point x="450" y="-98" type="line" smooth="yes"/>
			<point x="450" y="-160"/>
			<point x="440" y="-206"/>
			<point x="384" y="-206" type="curve" smooth="yes"/>
			<point x="364" y="-206"/>
			<point x="344" y="-200"/>
			<point x="332" y="-196" type="curve"/>
			<point x="324" y="-222" type="line"/>
			<point x="338" y="-228"/>
			<point x="362" y="-234"/>
		</contour>
		<component base="acutecmb" xOffset="-156"/>
		<component base="acutecmb" xOffset="154"/>
	</outline>
</glyph>
<glyph name="l.sups" format="1">
	<advance width="600"/>
	<outline>
		<contour>
			<point x="383" y="402" type="curve" smooth="yes"/>
			<point x="410" y="402"/>
			<point x="429" y="409"/>
			<point x="451" y="415" type="curve"/>
			<point x="443" y="441" type="line"/>
			<point x="419" y="433"/>
			<point x="405" y="430"/>
			<point x="388" y="430" type="curve" smooth="yes"/>
			<point x="350" y="430"/>
			<point x="331" y="451"/>
			<point x="331" y="497" type="curve" smooth="yes"/>
			<point x="331" y="884" type="line"/>
			<point x="207" y="884" type="line"/>
			<point x="207" y="857" type="line"/>
			<point x="299" y="857" type="line"/>
			<point x="299" y="501" type="line" smooth="yes"/>
			<point x="299" y="433"/>
			<point x="328" y="402"/>
		</contour>
	</outline>
</glyph>
<glyph name="lbelt.a" format="1">
	<advance width="600"/>
	<outline>
		<contour>
			<point x="294" y="340" type="curve" smooth="yes"/>
			<point x="504" y="340" type="line"/>
			<point x="504" y="368" type="line"/>
			<point x="288" y="368" type="line" smooth="yes"/>
			<point x="216" y="368"/>
			<point x="196" y="389"/>
			<point x="196" y="414" type="curve" smooth="yes"/>
			<point x="196" y="433"/>
			<point x="210" y="450"/>
			<point x="244" y="450" type="curve" smooth="yes"/>
			<point x="296" y="450"/>
			<point x="326" y="414"/>
			<point x="326" y="378" type="curve"/>
			<point x="346" y="370" type="line"/>
			<point x="346" y="406"/>
			<point x="328" y="478"/>
			<point x="240" y="478" type="curve" smooth="yes"/>
			<point x="194" y="478"/>
			<point x="164" y="451"/>
			<point x="164" y="416" type="curve" smooth="yes"/>
			<point x="164" y="372"/>
			<point x="200" y="340"/>
		</contour>
		<component base="l.a"/>
		<contour>
			<point name="aboveUC" x="340" y="740" type="move"/>
		</contour>
		<contour>
			<point name="baseLC" x="334" y="0" type="move"/>
		</contour>
		<contour>
			<point name="belowLC" x="330" y="-20" type="move"/>
		</contour>
	</outline>
</glyph>
<glyph name="lcat.a" format="1">
	<advance width="600"/>
	<outline>
		<contour>
			<point x="132" y="0" type="line"/>
			<point x="162" y="0" type="line"/>
			<point x="162" y="722" type="line"/>
			<point x="12" y="722" type="line"/>
			<point x="12" y="694" type="line"/>
			<point x="132" y="694" type="line"/>
		</contour>
		<contour>
			<point x="6" y="0" type="line"/>
			<point x="284" y="0" type="line"/>
			<point x="284" y="28" type="line"/>
			<point x="6" y="28" type="line"/>
		</contour>
		<contour>
			<point x="442" y="0" type="line"/>
			<point x="472" y="0" type="line"/>
			<point x="472" y="722" type="line"/>
			<point x="322" y="722" type="line"/>
			<point x="322" y="694" type="line"/>
			<point x="442" y="694" type="line"/>
		</contour>
		<contour>
			<point x="316" y="0" type="line"/>
			<point x="594" y="0" type="line"/>
			<point x="594" y="28" type="line"/>
			<point x="316" y="28" type="line"/>
		</contour>
		<contour>
			<point x="306" y="284" type="curve" smooth="yes"/>
			<point x="332" y="284"/>
			<point x="358" y="304"/>
			<point x="358" y="342" type="curve" smooth="yes"/>
			<point x="358" y="380"/>
			<point x="332" y="400"/>
			<point x="306" y="400" type="curve" smooth="yes"/>
			<point x="280" y="400"/>
			<point x="254" y="380"/>
			<point x="254" y="342" type="curve" smooth="yes"/>
			<point x="254" y="304"/>
			<point x="280" y="284"/>
		</contour>
	</outline>
</glyph>
<glyph name="lenisgrave.cap" format="1">
	<advance width="600"/>
	<outline>
		<contour>
			<point x="231" y="486" type="line"/>
			<point x="265" y="506"/>
			<point x="299" y="538"/>
			<point x="299" y="586" type="curve" smooth="yes"/>
			<point x="299" y="646"/>
			<point x="253" y="670"/>
			<point x="205" y="672" type="curve"/>
			<point x="203" y="646" type="line"/>
			<point x="245" y="644"/>
			<point x="269" y="624"/>
			<point x="269" y="582" type="curve" smooth="yes"/>
			<point x="269" y="552"/>
			<point x="247" y="526"/>
			<point x="219" y="508" type="curve"/>
		</contour>
		<contour>
			<point x="383" y="484" type="line"/>
			<point x="407" y="490" type="line"/>
			<point x="377" y="670" type="line"/>
			<point x="341" y="664" type="line"/>
		</contour>
	</outline>
</glyph>
<glyph name="macroncmb.cap" format="1">
	<advance width="600"/>
	<outline>
		<contour>
			<point x="180" y="746" type="line"/>
			<point x="420" y="746" type="line"/>
			<point x="420" y="774" type="line"/>
			<point x="180" y="774" type="line"/>
		</contour>
		<contour>
			<point name="_aboveUC" x="300" y="680" type="move"/>
		</contour>
	</outline>
</glyph>
<glyph name="parenleft.subs" format="1">
	<advance width="600"/>
	<outline>
		<contour>
			<point x="356" y="-240" type="curve"/>
			<point x="374" y="-226" type="line"/>
			<point x="297" y="-141"/>
			<point x="280" y="-64"/>
			<point x="280" y="24" type="curve" smooth="yes"/>
			<point x="280" y="112"/>
			<point x="296" y="189"/>
			<point x="374" y="272" type="curve"/>
			<point x="356" y="286" type="line"/>
			<point x="280" y="204"/>
			<point x="250" y="130"/>
			<point x="250" y="24" type="curve" smooth="yes"/>
			<point x="250" y="-84"/>
			<point x="280" y="-158"/>
		</contour>
	</outline>
</glyph>
<glyph name="varia.cap" format="1">
	<advance width="600"/>
	<outline>
		<contour>
			<point x="310" y="484" type="line"/>
			<point x="334" y="490" type="line"/>
			<point x="304" y="670" type="line"/>
			<point x="268" y="664" type="line"/>
		</contour>
	</outline>
</glyph>
<glyph name="z.sups" format="1">
	<advance width="600"/>
	<outline>
		<contour>
			<point x="142" y="410" type="line"/>
			<point x="447" y="410" type="line"/>
			<point x="447" y="437" type="line"/>
			<point x="190" y="437" type="line"/>
			<point x="439" y="709" type="line"/>
			<point x="439" y="726" type="line"/>
			<point x="169" y="726" type="line"/>
			<point x="169" y="699" type="line"/>
			<point x="391" y="699" type="line"/>
			<point x="142" y="427" type="line"/>
		</contour>
	</outline>
</glyph>
